<svg width="71" height="65" viewBox="0 0 71 65" fill="none" xmlns="http://www.w3.org/2000/svg">
<g clip-path="url(#clip0_1845_1963)">
<path d="M34.902 20.2746L24.5185 20.174L24.5261 19.3571L27.6077 17.7524L27.7008 8.18939C27.7311 5.08395 25.8628 3.79849 23.9416 3.7801C22.3472 3.76495 20.663 4.60677 19.8317 5.98853L19.7181 17.6756L22.7683 19.3398L22.7607 20.1567L12.3772 20.0561L12.3848 19.2391L15.4664 17.6345L15.5584 8.1948C15.5898 5.00713 13.885 3.68272 11.9638 3.66432C10.4516 3.64917 8.76743 4.45096 7.69044 5.87059L7.57679 17.5577L10.627 19.2218L10.6194 20.0388L0.235963 19.9381L0.24354 19.1212L3.32513 17.5165L3.4561 4.03113L0 2.15705L0.00757679 1.34011L7.53783 0.554554L7.50968 3.45657L7.91883 3.4609C9.24585 1.51107 10.8142 -0.0264992 13.5538 -0.000530342C16.2923 0.0265205 17.9126 1.59547 18.8727 3.77036L19.2819 3.77469C20.6511 1.70367 22.7109 0.0892786 25.6128 0.117411C29.333 0.153119 32.0044 2.91772 31.9578 7.65811L31.8593 17.7925L34.9095 19.4566L34.902 20.2736V20.2746Z" fill="#292929"/>
<path d="M53.0192 31.3109L45.2843 32.1343L45.3125 29.2323L44.9033 29.228C43.4984 30.7677 41.155 32.0932 38.5799 32.0683C35.1866 32.0358 32.6354 29.5991 32.6668 26.2892C32.709 21.9578 37.0624 19.956 45.4045 19.7104L45.4185 18.2388C45.4488 15.1334 43.8685 13.6467 42.1962 13.3026L37.4099 17.793L34.1713 14.4917C36.2744 12.6317 39.0248 11.515 42.2947 11.5464C46.0149 11.5821 49.72 13.1305 49.6659 18.729L49.5695 28.6188L53.0267 30.4918L53.0192 31.3087V31.3109ZM45.3352 26.9449L45.3882 21.5098C40.5618 21.7078 37.4423 22.9446 37.4164 25.6832C37.4034 27.0314 38.1643 28.674 40.5348 28.6967C41.7611 28.7086 43.7278 28.319 45.3352 26.9449Z" fill="#292929"/>
<path d="M22.9196 49.2661L22.912 50.0831L15.1772 50.9065L15.2053 48.0045L14.7962 48.0001C13.3046 50.029 11.3336 50.8686 9.16771 50.847C3.97544 50.7961 1.16229 45.8242 1.21208 40.7159C1.26295 35.5254 4.25795 30.2418 10.3486 30.3013C12.1887 30.3197 13.9 30.8261 15.3612 31.9438L15.4272 25.1194L11.97 23.2464L11.9776 22.4295L19.7125 21.605L19.4613 47.391L22.9185 49.264L22.9196 49.2661ZM15.227 45.677L15.2919 39.016C15.3352 34.6024 13.3101 32.5801 11.1442 32.5595C8.69146 32.5357 6.04932 35.1661 6.00494 39.662C5.96814 43.421 7.73137 47.0761 11.2881 47.1107C12.7191 47.1248 14.3189 46.5675 15.227 45.6781V45.677Z" fill="#292929"/>
<path d="M45.5831 55.134L37.8483 55.9574L37.8764 53.0554L37.4673 53.0511C36.0623 54.5908 33.7189 55.9163 31.1439 55.8914C27.7506 55.859 25.1994 53.4222 25.2308 50.1123C25.273 45.7809 29.6264 43.7791 37.9684 43.5335L37.9825 42.0619C38.0128 38.9565 36.4325 37.4698 34.7602 37.1257L29.9738 41.6161L26.7353 38.3148C28.8384 36.4548 31.5888 35.3382 34.8587 35.3695C38.5789 35.4052 42.284 36.9536 42.2298 42.5521L42.1335 52.4419L45.5907 54.3149L45.5831 55.1318V55.134ZM37.8981 50.768L37.9511 45.3329C33.1247 45.5309 30.0052 46.7677 29.9792 49.5063C29.9663 50.8545 30.7272 52.4971 33.0976 52.5198C34.324 52.5317 36.2907 52.1422 37.8981 50.768Z" fill="#292929"/>
<path d="M64.616 39.3341L70.9925 26.1928L71 25.3758L64.6225 25.3142L64.615 26.1311L67.6652 27.7953L62.6136 38.4944L62.2456 38.4912L57.9593 25.2482L51.5753 25.9212L51.5677 26.7381L54.0074 28.0701L59.8059 44.0788L56.2383 51.6357L55.8703 51.6325L51.584 38.3895L45.2 39.0625L45.1924 39.8794L47.6321 41.2114L53.4846 57.3705L50.2699 64.2057L50.8782 64.7435C52.4001 63.8184 53.5074 63.5024 54.3657 63.51C56.1235 63.5273 58.2764 64.9783 60.32 64.9989C61.8732 65.014 63.3118 64.2101 64.3227 61.2366L63.7144 60.74C62.973 61.3048 62.317 61.5028 61.6633 61.4963C60.2323 61.4823 58.9757 60.4078 57.4636 60.3927C56.6463 60.3851 55.3356 60.6577 54.304 61.5472L53.9793 61.2583L59.1088 50.6868C59.742 50.4585 60.28 50.3633 60.7421 50.3687C62.5 50.386 64.6528 51.837 66.6964 51.8576C68.2497 51.8727 69.6882 51.0688 70.6991 48.0953L70.0908 47.5987C69.3494 48.1635 68.6934 48.3615 68.0397 48.355C66.6087 48.341 65.3521 47.2665 63.84 47.2513C63.0228 47.2438 61.712 47.5164 60.6804 48.4059L60.3568 48.117L64.6193 39.333L64.616 39.3341Z" fill="#292929"/>
<path d="M30.7338 28.1113C30.4015 27.3171 29.6428 26.7663 28.7682 26.6722C28.4564 25.654 27.5505 24.9517 26.5049 24.942C25.4625 24.9323 24.5447 25.6129 24.2102 26.6202C23.2988 26.67 22.4946 27.2078 22.132 28.0269C21.7239 28.952 21.9685 30.0503 22.723 30.7569C22.5325 31.5879 22.7803 32.4448 23.3865 33.0216C23.8162 33.4327 24.3877 33.661 24.9906 33.6665C25.4614 33.6708 25.9334 33.5377 26.3382 33.2867C26.7376 33.5453 27.2063 33.6881 27.6782 33.6935C28.2822 33.6989 28.8558 33.4825 29.2942 33.08C29.8917 32.5336 30.1591 31.709 30.014 30.8954C30.8464 30.2093 31.1451 29.0873 30.7349 28.1113H30.7338ZM27.6262 30.0178C27.6749 30.2916 27.5851 30.5675 27.3849 30.7514C27.2377 30.8867 27.045 30.9592 26.8426 30.9581C26.6846 30.957 26.5265 30.9083 26.3923 30.8218C26.2559 30.9062 26.0979 30.9505 25.9399 30.9495C25.7375 30.9473 25.5459 30.8705 25.4008 30.7331C25.1973 30.5394 25.114 30.2515 25.1779 29.9724C24.9246 29.7354 24.8423 29.3664 24.9798 29.0559C25.1021 28.7811 25.3716 28.6004 25.6779 28.583C25.7905 28.2444 26.099 28.0161 26.4486 28.0193C26.7993 28.0226 27.1045 28.2584 27.2084 28.6004C27.5018 28.6317 27.7572 28.8168 27.8687 29.084C28.0062 29.4119 27.9066 29.7884 27.6262 30.0189V30.0178Z" fill="#292929"/>
</g>
<defs>
<clipPath id="clip0_1845_1963">
<rect width="71" height="65" fill="white"/>
</clipPath>
</defs>
</svg>
